<svg xmlns="http://www.w3.org/2000/svg" viewBox="0 0 800 600" width="800" height="600">
  <defs>
    <!-- Neon gradient -->
    <linearGradient id="neonGradient" x1="0%" y1="0%" x2="100%" y2="100%">
      <stop offset="0%" style="stop-color:#22D3EE;stop-opacity:1" />
      <stop offset="100%" style="stop-color:#10B981;stop-opacity:1" />
    </linearGradient>

    <!-- Red for noise -->
    <linearGradient id="noiseGradient" x1="0%" y1="0%" x2="0%" y2="100%">
      <stop offset="0%" style="stop-color:#EF4444;stop-opacity:0.8" />
      <stop offset="100%" style="stop-color:#DC2626;stop-opacity:0.6" />
    </linearGradient>

    <!-- Filters -->
    <filter id="glow">
      <feGaussianBlur stdDeviation="3" result="coloredBlur"/>
      <feMerge>
        <feMergeNode in="coloredBlur"/>
        <feMergeNode in="SourceGraphic"/>
      </feMerge>
    </filter>

    <filter id="shadow">
      <feDropShadow dx="0" dy="2" stdDeviation="2" flood-opacity="0.4"/>
    </filter>
  </defs>

  <!-- Background -->
  <rect width="800" height="600" fill="#0B0F14"/>

  <!-- Title -->
  <text x="400" y="35" font-family="system-ui, -apple-system, sans-serif" font-size="22" font-weight="700" fill="#E5E7EB" text-anchor="middle">
    Signal vs Noise: AI-Powered Alert Correlation
  </text>

  <!-- Before AI section -->
  <g id="before-ai">
    <text x="200" y="75" font-family="system-ui" font-size="16" font-weight="600" fill="#9CA3AF" text-anchor="middle">
      Before AI Correlation
    </text>

    <!-- Alert chaos visualization -->
    <rect x="50" y="90" width="300" height="250" rx="8" fill="#111827" stroke="#EF4444" stroke-width="2" filter="url(#shadow)"/>

    <!-- Scattered alerts (noise) -->
    <g id="noise-alerts">
      <!-- Row 1 -->
      <circle cx="80" cy="115" r="6" fill="#EF4444" opacity="0.7"/>
      <circle cx="110" cy="120" r="6" fill="#DC2626" opacity="0.6"/>
      <circle cx="140" cy="112" r="6" fill="#EF4444" opacity="0.7"/>
      <circle cx="170" cy="118" r="6" fill="#DC2626" opacity="0.6"/>
      <circle cx="200" cy="114" r="6" fill="#EF4444" opacity="0.7"/>
      <circle cx="230" cy="121" r="6" fill="#DC2626" opacity="0.6"/>
      <circle cx="260" cy="116" r="6" fill="#EF4444" opacity="0.7"/>
      <circle cx="290" cy="119" r="6" fill="#DC2626" opacity="0.6"/>
      <circle cx="320" cy="113" r="6" fill="#EF4444" opacity="0.7"/>

      <!-- Row 2 -->
      <circle cx="85" cy="145" r="6" fill="#DC2626" opacity="0.6"/>
      <circle cx="115" cy="150" r="6" fill="#EF4444" opacity="0.7"/>
      <circle cx="145" cy="142" r="6" fill="#DC2626" opacity="0.6"/>
      <circle cx="175" cy="148" r="6" fill="#EF4444" opacity="0.7"/>
      <circle cx="205" cy="144" r="6" fill="#DC2626" opacity="0.6"/>
      <circle cx="235" cy="151" r="6" fill="#EF4444" opacity="0.7"/>
      <circle cx="265" cy="146" r="6" fill="#DC2626" opacity="0.6"/>
      <circle cx="295" cy="149" r="6" fill="#EF4444" opacity="0.7"/>
      <circle cx="325" cy="143" r="6" fill="#DC2626" opacity="0.6"/>

      <!-- Row 3 -->
      <circle cx="90" cy="175" r="6" fill="#EF4444" opacity="0.7"/>
      <circle cx="120" cy="180" r="6" fill="#DC2626" opacity="0.6"/>
      <circle cx="150" cy="172" r="6" fill="#EF4444" opacity="0.7"/>
      <circle cx="180" cy="178" r="6" fill="#DC2626" opacity="0.6"/>
      <circle cx="210" cy="174" r="6" fill="#EF4444" opacity="0.7"/>
      <circle cx="240" cy="181" r="6" fill="#DC2626" opacity="0.6"/>
      <circle cx="270" cy="176" r="6" fill="#EF4444" opacity="0.7"/>
      <circle cx="300" cy="179" r="6" fill="#DC2626" opacity="0.6"/>
      <circle cx="330" cy="173" r="6" fill="#EF4444" opacity="0.7"/>

      <!-- Rows 4-8 (more scattered dots) -->
      <circle cx="75" cy="205" r="6" fill="#DC2626" opacity="0.6"/>
      <circle cx="105" cy="210" r="6" fill="#EF4444" opacity="0.7"/>
      <circle cx="135" cy="202" r="6" fill="#DC2626" opacity="0.6"/>
      <circle cx="165" cy="208" r="6" fill="#EF4444" opacity="0.7"/>
      <circle cx="195" cy="204" r="6" fill="#DC2626" opacity="0.6"/>
      <circle cx="225" cy="211" r="6" fill="#EF4444" opacity="0.7"/>
      <circle cx="255" cy="206" r="6" fill="#DC2626" opacity="0.6"/>
      <circle cx="285" cy="209" r="6" fill="#EF4444" opacity="0.7"/>
      <circle cx="315" cy="203" r="6" fill="#DC2626" opacity="0.6"/>

      <circle cx="80" cy="235" r="6" fill="#EF4444" opacity="0.7"/>
      <circle cx="110" cy="240" r="6" fill="#DC2626" opacity="0.6"/>
      <circle cx="140" cy="232" r="6" fill="#EF4444" opacity="0.7"/>
      <circle cx="170" cy="238" r="6" fill="#DC2626" opacity="0.6"/>
      <circle cx="200" cy="234" r="6" fill="#EF4444" opacity="0.7"/>
      <circle cx="230" cy="241" r="6" fill="#DC2626" opacity="0.6"/>
      <circle cx="260" cy="236" r="6" fill="#EF4444" opacity="0.7"/>
      <circle cx="290" cy="239" r="6" fill="#DC2626" opacity="0.6"/>
      <circle cx="320" cy="233" r="6" fill="#EF4444" opacity="0.7"/>

      <circle cx="85" cy="265" r="6" fill="#DC2626" opacity="0.6"/>
      <circle cx="115" cy="270" r="6" fill="#EF4444" opacity="0.7"/>
      <circle cx="145" cy="262" r="6" fill="#DC2626" opacity="0.6"/>
      <circle cx="175" cy="268" r="6" fill="#EF4444" opacity="0.7"/>
      <circle cx="205" cy="264" r="6" fill="#DC2626" opacity="0.6"/>
      <circle cx="235" cy="271" r="6" fill="#EF4444" opacity="0.7"/>
      <circle cx="265" cy="266" r="6" fill="#DC2626" opacity="0.6"/>
      <circle cx="295" cy="269" r="6" fill="#EF4444" opacity="0.7"/>
      <circle cx="325" cy="263" r="6" fill="#DC2626" opacity="0.6"/>

      <circle cx="90" cy="295" r="6" fill="#EF4444" opacity="0.7"/>
      <circle cx="120" cy="300" r="6" fill="#DC2626" opacity="0.6"/>
      <circle cx="150" cy="292" r="6" fill="#EF4444" opacity="0.7"/>
      <circle cx="180" cy="298" r="6" fill="#DC2626" opacity="0.6"/>
      <circle cx="210" cy="294" r="6" fill="#EF4444" opacity="0.7"/>
      <circle cx="240" cy="301" r="6" fill="#DC2626" opacity="0.6"/>
      <circle cx="270" cy="296" r="6" fill="#EF4444" opacity="0.7"/>
      <circle cx="300" cy="299" r="6" fill="#DC2626" opacity="0.6"/>
      <circle cx="330" cy="293" r="6" fill="#EF4444" opacity="0.7"/>

      <circle cx="75" cy="325" r="6" fill="#DC2626" opacity="0.6"/>
      <circle cx="105" cy="318" r="6" fill="#EF4444" opacity="0.7"/>
      <circle cx="135" cy="322" r="6" fill="#DC2626" opacity="0.6"/>
      <circle cx="165" cy="328" r="6" fill="#EF4444" opacity="0.7"/>
      <circle cx="195" cy="324" r="6" fill="#DC2626" opacity="0.6"/>
      <circle cx="225" cy="319" r="6" fill="#EF4444" opacity="0.7"/>
      <circle cx="255" cy="326" r="6" fill="#DC2626" opacity="0.6"/>
      <circle cx="285" cy="320" r="6" fill="#EF4444" opacity="0.7"/>
      <circle cx="315" cy="323" r="6" fill="#DC2626" opacity="0.6"/>
    </g>

    <!-- Stats box -->
    <rect x="60" y="355" width="280" height="95" rx="6" fill="#0B0F14" stroke="#EF4444" stroke-width="1"/>
    <text x="200" y="378" font-family="system-ui" font-size="13" font-weight="600" fill="#EF4444" text-anchor="middle">
      Alert Chaos
    </text>
    <text x="200" y="398" font-family="system-ui" font-size="11" fill="#9CA3AF" text-anchor="middle">
      298 alerts/day
    </text>
    <text x="200" y="415" font-family="system-ui" font-size="11" fill="#9CA3AF" text-anchor="middle">
      54 actionable (18% SNR)
    </text>
    <text x="200" y="432" font-family="system-ui" font-size="11" fill="#9CA3AF" text-anchor="middle">
      MTTA: 12 minutes
    </text>
  </g>

  <!-- Arrow showing transformation -->
  <g id="transformation-arrow">
    <path d="M 360 215 L 430 215" stroke="url(#neonGradient)" stroke-width="3" fill="none"/>
    <polygon points="430,210 445,215 430,220" fill="#22D3EE"/>
    <text x="400" y="207" font-family="system-ui" font-size="12" font-weight="600" fill="#22D3EE" text-anchor="middle">
      AI Correlation
    </text>
  </g>

  <!-- After AI section -->
  <g id="after-ai">
    <text x="600" y="75" font-family="system-ui" font-size="16" font-weight="600" fill="#9CA3AF" text-anchor="middle">
      After AI Correlation
    </text>

    <!-- Clean signal visualization -->
    <rect x="450" y="90" width="300" height="250" rx="8" fill="#111827" stroke="url(#neonGradient)" stroke-width="2" filter="url(#glow)"/>

    <!-- Clustered incidents (signal) -->
    <g id="signal-incidents">
      <!-- Incident cluster 1 -->
      <circle cx="510" cy="140" r="18" fill="#22D3EE" opacity="0.9" filter="url(#glow)"/>
      <text x="510" y="145" font-family="system-ui" font-size="11" font-weight="700" fill="#0B0F14" text-anchor="middle">
        I1
      </text>

      <!-- Incident cluster 2 -->
      <circle cx="590" cy="140" r="18" fill="#10B981" opacity="0.9" filter="url(#glow)"/>
      <text x="590" y="145" font-family="system-ui" font-size="11" font-weight="700" fill="#0B0F14" text-anchor="middle">
        I2
      </text>

      <!-- Incident cluster 3 -->
      <circle cx="670" cy="140" r="18" fill="#22D3EE" opacity="0.9" filter="url(#glow)"/>
      <text x="670" y="145" font-family="system-ui" font-size="11" font-weight="700" fill="#0B0F14" text-anchor="middle">
        I3
      </text>

      <!-- Incident cluster 4 -->
      <circle cx="510" cy="200" r="18" fill="#10B981" opacity="0.9" filter="url(#glow)"/>
      <text x="510" y="205" font-family="system-ui" font-size="11" font-weight="700" fill="#0B0F14" text-anchor="middle">
        I4
      </text>

      <!-- Incident cluster 5 -->
      <circle cx="590" cy="200" r="18" fill="#22D3EE" opacity="0.9" filter="url(#glow)"/>
      <text x="590" y="205" font-family="system-ui" font-size="11" font-weight="700" fill="#0B0F14" text-anchor="middle">
        I5
      </text>

      <!-- Incident cluster 6 -->
      <circle cx="670" cy="200" r="18" fill="#10B981" opacity="0.9" filter="url(#glow)"/>
      <text x="670" y="205" font-family="system-ui" font-size="11" font-weight="700" fill="#0B0F14" text-anchor="middle">
        I6
      </text>

      <!-- Incident cluster 7 -->
      <circle cx="510" cy="260" r="18" fill="#22D3EE" opacity="0.9" filter="url(#glow)"/>
      <text x="510" y="265" font-family="system-ui" font-size="11" font-weight="700" fill="#0B0F14" text-anchor="middle">
        I7
      </text>

      <!-- Incident cluster 8 -->
      <circle cx="590" cy="260" r="18" fill="#10B981" opacity="0.9" filter="url(#glow)"/>
      <text x="590" y="265" font-family="system-ui" font-size="11" font-weight="700" fill="#0B0F14" text-anchor="middle">
        I8
      </text>

      <!-- Incident cluster 9 -->
      <circle cx="670" cy="260" r="18" fill="#22D3EE" opacity="0.9" filter="url(#glow)"/>
      <text x="670" y="265" font-family="system-ui" font-size="11" font-weight="700" fill="#0B0F14" text-anchor="middle">
        I9
      </text>
    </g>

    <!-- Stats box -->
    <rect x="460" y="355" width="280" height="95" rx="6" fill="#0B0F14" stroke="#22D3EE" stroke-width="1"/>
    <text x="600" y="378" font-family="system-ui" font-size="13" font-weight="600" fill="#22D3EE" text-anchor="middle">
      Clean Signal
    </text>
    <text x="600" y="398" font-family="system-ui" font-size="11" fill="#9CA3AF" text-anchor="middle">
      81 incidents/day (-73%)
    </text>
    <text x="600" y="415" font-family="system-ui" font-size="11" fill="#9CA3AF" text-anchor="middle">
      63 actionable (78% SNR)
    </text>
    <text x="600" y="432" font-family="system-ui" font-size="11" fill="#9CA3AF" text-anchor="middle">
      MTTA: 1.8 minutes (-85%)
    </text>
  </g>

  <!-- Bottom comparison panel -->
  <g id="comparison">
    <rect x="50" y="475" width="700" height="95" rx="8" fill="#111827" stroke="url(#neonGradient)" stroke-width="1.5" filter="url(#shadow)"/>

    <text x="400" y="500" font-family="system-ui" font-size="14" font-weight="600" fill="#E5E7EB" text-anchor="middle">
      Signal-to-Noise Ratio Improvement
    </text>

    <!-- Before SNR -->
    <g id="before-snr">
      <text x="180" y="525" font-family="system-ui" font-size="11" fill="#9CA3AF" text-anchor="middle">
        Before (Manual)
      </text>
      <text x="180" y="548" font-family="system-ui" font-size="22" font-weight="700" fill="#EF4444" text-anchor="middle">
        18% SNR
      </text>
    </g>

    <!-- Arrow -->
    <text x="400" y="545" font-family="system-ui" font-size="28" font-weight="700" fill="url(#neonGradient)" text-anchor="middle">
      →
    </text>

    <!-- After SNR -->
    <g id="after-snr">
      <text x="620" y="525" font-family="system-ui" font-size="11" fill="#9CA3AF" text-anchor="middle">
        After (AI)
      </text>
      <text x="620" y="548" font-family="system-ui" font-size="22" font-weight="700" fill="#22D3EE" text-anchor="middle">
        78% SNR
      </text>
    </g>
  </g>
</svg>
